<svg width="1024" height="1024" viewBox="0 0 1024 1024" fill="none" xmlns="http://www.w3.org/2000/svg">
<g opacity="0.94">
<g clip-path="url(#clip0_13_2)">
<rect width="1024" height="1024" rx="128" fill="white"/>
<rect x="128" y="1024" width="1024" height="36" transform="rotate(-90 128 1024)" fill="#F3F3F3"/>
<rect x="904" y="1024" width="1024" height="36" transform="rotate(-90 904 1024)" fill="#F3F3F3"/>
<rect x="128" y="774" width="896" height="36" fill="#F3F3F3"/>
<rect y="84" width="1024" height="36" fill="#F3F3F3"/>
<rect x="736" width="286" height="36" transform="rotate(90 736 0)" fill="#F3F3F3"/>
<rect x="448" width="128" height="208" fill="#EBEBEB"/>
<rect y="576" width="128" height="208" transform="rotate(-90 0 576)" fill="#EBEBEB"/>
<rect x="818" y="576" width="128" height="208" transform="rotate(-90 818 576)" fill="#EBEBEB"/>
<rect x="448" y="816" width="128" height="208" fill="#EBEBEB"/>
<path d="M314 512C314 402.648 402.648 314 512 314C576.238 314 633.331 344.591 669.506 392L779.068 325C720.104 240.946 622.469 186 512 186C331.955 186 186 331.955 186 512C186 692.045 331.955 838 512 838C628.067 838 729.968 777.343 787.731 686L672.48 628C636.506 677.681 578.027 710 512 710C402.648 710 314 621.352 314 512Z" fill="#FFA542"/>
<path fill-rule="evenodd" clip-rule="evenodd" d="M672.479 628L787.731 686C819.57 635.651 838 575.978 838 512C838 442.424 816.204 377.939 779.068 325L669.506 392C694.912 425.295 710 466.886 710 512C710 555.325 696.085 595.4 672.479 628Z" fill="#EBEBEB"/>
<path fill-rule="evenodd" clip-rule="evenodd" d="M513.436 422C472.907 422 440.053 454.856 440.053 495.386C440.053 518.471 454.959 537.812 467.376 552.519L513.436 600L559.495 552.519C575.353 535.519 586.819 518.471 586.819 495.386C586.819 454.856 553.964 422 513.436 422ZM514.119 528.176C532.227 528.176 546.907 513.495 546.907 495.386C546.907 477.277 532.227 462.597 514.119 462.597C496.01 462.597 481.331 477.277 481.331 495.386C481.331 513.495 496.01 528.176 514.119 528.176Z" fill="#F93625"/>
</g>
</g>
<defs>
<clipPath id="clip0_13_2">
<rect width="1024" height="1024" rx="128" fill="white"/>
</clipPath>
</defs>
</svg>
